<svg
  width="120"
  height="138"
  viewBox="0 0 120 138"
  fill="none"
  xmlns="http://www.w3.org/2000/svg"
>
    <path
    fill-rule="evenodd"
    clip-rule="evenodd"
    d="M59.9455 117.876L102.47 93.4115L119.866 103.421L59.9462 137.893L46.4154 130.108L46.4158 123.436L59.9457 131.22L108.267 103.42L102.469 100.084L59.9466 124.548L46.4154 116.764V112.315L85.0726 90.0754L79.2742 86.7397L46.4154 105.645V98.9705L79.2748 80.0666L96.6711 90.0754L54.1468 114.54L59.9455 117.876ZM34.8184 83.4038V103.419L34.8186 116.763L29.0199 113.427L29.0195 100.084V93.4115V86.7391L29.0199 83.0869V51.1545L59.9466 33.3614L79.2733 44.4822L85.0309 47.8427L79.2742 51.1551L79.2733 51.1547L59.9457 40.0337L34.8182 54.4904L34.8186 57.8269L34.8184 83.0869V83.4038ZM40.6169 57.8269L59.9455 46.7064L79.2733 57.8269L96.584 47.8677L96.6125 47.8511L59.9466 26.69L23.221 47.8186L23.2212 90.2127L23.2208 116.764L40.6169 126.773V57.8269ZM119.865 34.474L59.9451 0.000274658L0.0263672 34.474V103.42L17.4223 113.428L17.4216 106.755L5.82528 100.084V37.8097L59.9457 6.67317L108.267 34.474L102.469 37.8101L59.9457 13.3454L11.6233 41.146L11.624 96.7478L17.4216 100.084L17.4225 44.4822L59.9461 20.0173L102.469 44.4822L118.456 35.2845L119.865 34.4742V34.474H119.865Z"
    fill="url(#paint0_linear)"
  />
    <defs>
        <linearGradient
      id="paint0_linear"
      x1="59.9459"
      y1="137.893"
      x2="59.9459"
      y2="0.000274658"
      gradientUnits="userSpaceOnUse"
    >
            <stop stop-color="#12A546" />
            <stop offset="0.494792" stop-color="#18CD58" />
            <stop offset="1" stop-color="#4EE982" />
        </linearGradient>
    </defs>
</svg>
