<svg
  width="250"
  height="250"
  viewBox="0 0 250 250"
  fill="none"
  xmlns="http://www.w3.org/2000/svg"
>
<g clip-path="url(#clip0)">
<path
      d="M29.475 81H43.1473V144.289C36.1336 145.621 30.9842 146.153 25.3915 146.153C8.70036 146.153 0 138.607 0 124.134C0 110.195 9.23357 101.139 23.5266 101.139C25.746 101.139 27.4327 101.316 29.475 101.849V81ZM29.475 112.858C27.8771 112.325 26.5455 112.148 24.8588 112.148C17.9339 112.148 13.9386 116.41 13.9386 123.867C13.9386 131.148 17.7564 135.144 24.77 135.144C26.2786 135.144 27.522 135.055 29.475 134.789V112.858Z"
      fill="#092E20"
    />
<path
      d="M64.8973 102.115V133.811C64.8973 144.732 64.0984 149.97 61.7015 154.499C59.4816 158.85 56.5515 161.602 50.5149 164.621L37.8192 158.583C43.8563 155.742 46.7858 153.257 48.6501 149.438C50.6037 145.531 51.2256 141.003 51.2256 129.106V102.115H64.8973ZM51.2256 81.0727H64.8973V95.101H51.2256V81.0727Z"
      fill="#092E20"
    />
<path
      d="M73.1555 105.223C79.1933 102.382 84.9635 101.139 91.267 101.139C98.2807 101.139 102.897 103.003 104.939 106.644C106.093 108.685 106.448 111.349 106.448 117.032V144.821C100.321 145.709 92.598 146.331 86.9165 146.331C75.4642 146.331 70.3142 142.334 70.3142 133.456C70.3142 123.867 77.1503 119.428 93.9302 118.007V114.988C93.9302 112.502 92.6874 111.615 89.2246 111.615C84.1646 111.615 78.4825 113.036 73.155 115.788V105.223H73.1555ZM94.5516 126.975C85.4956 127.863 82.5661 129.284 82.5661 132.835C82.5661 135.499 84.2533 136.742 87.9818 136.742C90.0242 136.742 91.8879 136.565 94.5516 136.121V126.975Z"
      fill="#092E20"
    />
<path
      d="M113.107 104.246C121.185 102.115 127.844 101.139 134.591 101.139C141.605 101.139 146.666 102.737 149.685 105.845C152.526 108.774 153.413 111.97 153.413 118.808V145.62H139.741V119.34C139.741 114.102 137.965 112.148 133.083 112.148C131.218 112.148 129.532 112.325 126.779 113.124V145.62H113.107V104.246Z"
      fill="#092E20"
    />
<path
      d="M158.728 153.079C163.523 155.565 168.317 156.718 173.377 156.718C182.343 156.718 186.161 153.079 186.161 144.377C186.161 144.288 186.161 144.2 186.161 144.111C183.497 145.442 180.834 145.975 177.283 145.975C165.298 145.975 157.661 138.073 157.661 125.555C157.661 110.016 168.937 101.227 188.912 101.227C194.772 101.227 200.188 101.848 206.758 103.18L202.076 113.043C198.436 112.332 201.785 112.947 199.034 112.681V114.102L199.211 119.872L199.299 127.331C199.388 129.195 199.388 131.06 199.477 132.924C199.477 134.611 199.477 135.41 199.477 136.653C199.477 148.373 198.501 153.878 195.571 158.405C191.309 165.065 183.941 168.35 173.465 168.35C168.138 168.35 163.522 167.551 158.727 165.686V153.079H158.728ZM185.895 112.237C185.717 112.237 185.54 112.237 185.451 112.237H184.474C181.812 112.148 178.705 112.858 176.573 114.189C173.289 116.054 171.601 119.428 171.601 124.222C171.601 131.06 174.976 134.966 181.012 134.966C182.876 134.966 184.386 134.61 186.161 134.078V133.101V129.373C186.161 127.775 186.073 125.998 186.073 124.134L185.985 117.831L185.895 113.303V112.237H185.895Z"
      fill="#092E20"
    />
<path
      d="M227.982 100.961C241.654 100.961 250 109.574 250 123.513C250 137.808 241.3 146.775 227.45 146.775C213.777 146.775 205.343 138.163 205.343 124.312C205.344 109.928 214.045 100.961 227.982 100.961ZM227.715 135.765C232.954 135.765 236.061 131.414 236.061 123.867C236.061 116.41 233.043 111.97 227.806 111.97C222.389 111.97 219.281 116.322 219.281 123.867C219.282 131.415 222.389 135.765 227.715 135.765Z"
      fill="#092E20"
    />
</g>
<defs>
<clipPath id="clip0">
<rect width="250" height="87.3494" fill="white" transform="translate(0 81)" />
</clipPath>
</defs>
</svg>
