<svg
  width="250"
  height="250"
  viewBox="0 0 250 250"
  fill="none"
  xmlns="http://www.w3.org/2000/svg"
>
<path
    d="M181.308 177.84C182.784 165.55 182.341 163.748 191.496 165.739L193.82 165.943C200.859 166.263 210.067 164.811 215.476 162.298C227.121 156.894 234.026 147.873 222.544 150.243C196.352 155.647 194.551 146.778 194.551 146.778C222.208 105.741 233.77 53.6494 223.79 40.8984C196.571 6.11818 149.455 22.565 148.666 22.992L148.415 23.0383C143.24 21.9645 137.448 21.323 130.942 21.2178C119.089 21.023 110.095 24.3251 103.273 29.4998C103.273 29.4998 19.2203 -5.12893 23.1306 73.0489C23.9622 89.6795 46.9689 198.89 74.4087 165.903C84.4377 153.841 94.1299 143.642 94.1299 143.642C98.9426 146.84 104.705 148.471 110.748 147.885L111.215 147.487C111.069 148.984 111.133 150.449 111.402 152.183C104.334 160.081 106.411 161.468 92.2786 164.377C77.9805 167.324 86.3806 172.571 91.8636 173.942C98.5125 175.604 113.894 177.96 124.29 163.41L123.876 165.07C126.649 167.289 126.461 181.015 126.854 190.822C127.248 200.63 127.905 209.782 129.904 215.178C131.903 220.573 134.262 234.472 152.835 230.491C168.358 227.165 180.227 222.377 181.308 177.84"
    fill="black"
  />
<path
    d="M181.308 177.84C182.784 165.55 182.341 163.748 191.496 165.739L193.82 165.943C200.859 166.263 210.067 164.811 215.476 162.298C227.121 156.894 234.026 147.873 222.544 150.243C196.352 155.647 194.551 146.778 194.551 146.778C222.208 105.741 233.77 53.6494 223.79 40.8984C196.571 6.11818 149.455 22.565 148.666 22.992L148.415 23.0383C143.24 21.9645 137.448 21.323 130.942 21.2178C119.089 21.023 110.095 24.3251 103.273 29.4998C103.273 29.4998 19.2203 -5.12893 23.1306 73.0489C23.9622 89.6795 46.9689 198.89 74.4087 165.903C84.4377 153.841 94.1299 143.642 94.1299 143.642C98.9426 146.84 104.705 148.471 110.748 147.885L111.215 147.487C111.069 148.984 111.133 150.449 111.402 152.183C104.334 160.081 106.411 161.468 92.2786 164.377C77.9805 167.324 86.3806 172.571 91.8636 173.942C98.5125 175.604 113.894 177.96 124.29 163.41L123.876 165.07C126.649 167.289 126.461 181.015 126.854 190.822C127.248 200.63 127.905 209.782 129.904 215.178C131.903 220.573 134.262 234.472 152.835 230.491C168.358 227.165 180.227 222.377 181.308 177.84"
    stroke="black"
    stroke-width="37.3953"
  />
<path
    d="M222.546 150.242C196.352 155.646 194.551 146.777 194.551 146.777C222.208 105.738 233.77 53.6447 223.792 40.8953C196.573 6.11713 149.455 22.5649 148.668 22.992L148.415 23.0373C143.24 21.963 137.448 21.323 130.939 21.2167C119.086 21.0225 110.095 24.324 103.273 29.4977C103.273 29.4977 19.2187 -5.12946 23.128 73.0478C23.9596 89.6794 46.9657 198.89 74.4065 165.903C84.4361 153.841 94.1267 143.642 94.1267 143.642C98.94 146.84 104.702 148.471 110.743 147.885L111.212 147.487C111.066 148.984 111.133 150.449 111.4 152.183C104.331 160.081 106.408 161.468 92.2765 164.377C77.9773 167.324 86.3775 172.57 91.862 173.942C98.5109 175.604 113.893 177.96 124.287 163.41L123.872 165.07C126.642 167.289 128.587 179.501 128.261 190.571C127.935 201.641 127.718 209.242 129.9 215.178C132.082 221.115 134.258 234.472 152.835 230.491C168.358 227.165 176.402 218.544 177.521 204.165C178.315 193.942 180.112 195.453 180.226 186.314L181.667 181.987C183.329 168.129 181.931 163.658 191.495 165.738L193.819 165.942C200.858 166.262 210.07 164.81 215.477 162.297C227.12 156.893 234.025 147.872 222.545 150.242H222.546Z"
    fill="#336791"
  />
<path
    d="M125.412 158.186C124.69 183.971 125.593 209.936 128.116 216.247C130.641 222.557 136.043 234.831 154.622 230.851C170.143 227.523 175.791 221.084 178.242 206.87C180.046 196.412 183.526 167.369 183.972 161.419"
    stroke="white"
    stroke-width="12.4651"
    stroke-linecap="round"
    stroke-linejoin="round"
  />
<path
    d="M103.144 28.9217C103.144 28.9217 19.0318 -5.45597 22.9421 72.7213C23.7737 89.3529 46.7814 198.567 74.2217 165.579C84.2492 153.515 93.318 144.054 93.318 144.054"
    stroke="white"
    stroke-width="12.4651"
    stroke-linecap="round"
    stroke-linejoin="round"
  />
<path
    d="M148.576 22.6472C145.665 23.5601 195.364 4.47887 223.609 40.5698C233.586 53.3198 222.024 105.413 194.368 146.453"
    stroke="white"
    stroke-width="12.4651"
    stroke-linecap="round"
    stroke-linejoin="round"
  />
<path
    d="M194.367 146.453C194.367 146.453 196.169 155.324 222.365 149.917C233.842 147.547 226.935 156.569 215.294 161.975C205.741 166.409 184.323 167.545 183.973 161.419C183.073 145.611 195.246 150.414 194.368 146.453C193.573 142.886 188.13 139.385 184.529 130.654C181.385 123.034 141.413 64.5982 195.614 73.2769C197.599 72.8661 181.478 21.7219 130.753 20.8902C80.04 20.0586 81.7038 83.256 81.7038 83.256"
    stroke="white"
    stroke-width="12.4651"
    stroke-linecap="round"
    stroke-linejoin="bevel"
  />
<path
    d="M111.215 151.859C104.145 159.756 106.224 161.143 92.0917 164.053C77.7925 167.001 86.1937 172.246 91.6766 173.617C98.3255 175.28 113.708 177.636 124.102 163.082C127.267 158.651 124.083 151.581 119.735 149.779C117.634 148.909 114.825 147.818 111.215 151.859V151.859Z"
    stroke="white"
    stroke-width="12.4651"
    stroke-linecap="round"
    stroke-linejoin="round"
  />
<path
    d="M110.752 151.721C110.04 147.077 112.278 141.552 114.677 135.087C118.281 125.388 126.598 115.687 119.945 84.9188C114.986 61.9908 81.7242 80.1472 81.7033 83.256C81.683 86.3638 83.2078 99.0139 81.1477 113.745C78.4596 132.967 93.379 149.224 110.559 147.561"
    stroke="white"
    stroke-width="12.4651"
    stroke-linecap="round"
    stroke-linejoin="round"
  />
<path
    d="M102.838 82.79C102.688 83.8518 104.782 86.6851 107.512 87.0637C110.238 87.4439 112.571 85.2297 112.719 84.1689C112.866 83.1071 110.775 81.9375 108.044 81.5573C105.317 81.1767 102.983 81.7308 102.838 82.79H102.838Z"
    fill="white"
    stroke="white"
    stroke-width="4.155"
  />
<path
    d="M185.858 80.6252C186.005 81.687 183.914 84.5204 181.183 84.899C178.456 85.2791 176.123 83.0649 175.973 82.0042C175.829 80.9424 177.921 79.7728 180.649 79.3926C183.377 79.0125 185.71 79.566 185.858 80.6257V80.6252Z"
    fill="white"
    stroke="white"
    stroke-width="2.0775"
  />
<path
    d="M195.614 73.2769C196.063 81.6058 193.82 87.2788 193.537 96.145C193.118 109.032 199.681 123.783 189.792 138.552"
    stroke="white"
    stroke-width="12.4651"
    stroke-linecap="round"
    stroke-linejoin="round"
  />
</svg>
