<svg
  width="250"
  height="250"
  viewBox="0 0 250 250"
  fill="none"
  xmlns="http://www.w3.org/2000/svg"
>
<path
    fill-rule="evenodd"
    clip-rule="evenodd"
    d="M138.27 215.44C144.5 215.44 150.976 219.405 150.976 228.911C150.976 238.417 144.5 242.382 138.27 242.382C132.003 242.379 125.528 238.417 125.528 228.911C125.528 219.407 132.003 215.44 138.27 215.44ZM195.265 215.933V231.438C195.265 235.016 196.42 236.629 199.222 236.629C202.022 236.629 203.141 235.016 203.141 231.438V215.933H210V231.472C210 238.348 206.711 242.275 199.149 242.275C191.587 242.275 188.264 238.348 188.264 231.472V215.933H195.265ZM165.768 215.933V225.334L172.91 215.933H181.03L172.313 226.176L181.799 241.891H173.888L167.763 231.507L165.768 233.823V241.891H158.767V215.933H165.768ZM89.1125 215.933V221.757H77.6318V225.967H85.8231V231.438H77.6318V236.244H89.7086V241.891H70.6326V215.933H89.1125ZM107.512 215.933C114.162 215.933 118.223 218.144 118.223 224.386C118.223 228.454 116.508 230.808 113.112 231.962L118.608 241.889H111.188L106.182 232.876H104.255V241.889H97.3941V215.933H107.512ZM46.0015 215.933V225.579H54.6132V215.933H61.6148V241.889H54.6132V231.4H46.0015V241.889H39V215.933H46.0015ZM138.268 221.231C134.591 221.231 132.528 224.141 132.528 228.911C132.528 233.683 134.594 236.77 138.268 236.77C141.909 236.767 143.973 233.683 143.973 228.911C143.973 224.141 141.906 221.231 138.268 221.231ZM107.267 221.614H104.258V227.542H107.267C110.138 227.542 111.397 226.735 111.397 224.56C111.397 222.385 110.136 221.614 107.267 221.614ZM192.9 6C202.343 6 210 13.6731 210 23.136V179.264C210 188.727 202.343 196.4 192.9 196.4H56.1C46.657 196.4 39 188.727 39 179.264V23.136C39 13.6731 46.657 6 56.1 6H192.9ZM192.9 15.52H56.1C51.9105 15.52 48.5 18.9353 48.5 23.136V179.264C48.5 183.462 51.9105 186.88 56.1 186.88H192.9C197.092 186.88 200.5 183.462 200.5 179.264V23.136C200.5 18.9353 197.092 15.52 192.9 15.52ZM84.125 129.76L105.5 148.8L84.125 167.84V129.76ZM103.125 34.56V88.6122C112.611 85.5182 125.87 82.16 138.75 82.16C150.494 82.16 157.524 86.7867 161.353 90.6685C169.185 98.6058 169.614 108.626 169.626 110.52L169.626 167.84H150.625V110.982C150.532 106.538 148.397 101.2 138.75 101.2C119.432 101.2 97.7622 110.937 97.5461 111.034L84.125 117.127V34.56H103.125ZM169.625 34.56C168.342 45.3747 163.968 55.742 155.375 65.5H136.375C143.842 55.6825 148.53 45.3509 150.625 34.56H169.625Z"
    fill="#430098"
  />
</svg>
