<svg
  width="250"
  height="250"
  viewBox="0 0 250 250"
  fill="none"
  xmlns="http://www.w3.org/2000/svg"
>
<path
    d="M11.604 202.324C12.2612 201.585 12.9183 200.846 13.6569 200.107C14.3439 199.343 15.0284 198.577 15.7104 197.808C16.3669 196.986 17.024 196.247 17.5997 195.59C18.1753 194.932 18.749 194.276 19.1597 193.783H27.1253C25.5653 195.59 24.0039 197.397 22.4446 199.039C20.9661 200.682 19.3237 202.406 17.5175 204.212C18.5078 205.14 19.4403 206.128 20.3096 207.17C21.2946 208.319 22.1982 209.468 23.1018 210.617C23.9971 211.77 24.8197 212.977 25.5646 214.232C26.3032 215.463 26.9617 216.53 27.4539 217.517H19.7347C19.2411 216.695 18.6668 215.874 18.0918 214.97C17.4911 213.974 16.8328 213.015 16.1204 212.097C15.453 211.111 14.7121 210.178 13.904 209.305C13.2494 208.485 12.5056 207.741 11.6862 207.087V217.434H4.95264V183.518L11.6862 182.45V202.324"
    fill="black"
  />
<path
    d="M50.8581 216.695C49.4032 217.1 47.9214 217.402 46.4238 217.598C44.5508 217.904 42.6542 218.041 40.7567 218.008C39.0224 218.071 37.2927 217.792 35.666 217.188C34.4416 216.725 33.3587 215.952 32.5236 214.944C31.6886 213.936 31.1301 212.728 30.9032 211.439C30.5679 209.985 30.4023 208.497 30.4097 207.004V193.783H37.1446V206.184C37.1446 208.319 37.391 209.879 37.966 210.865C38.541 211.851 39.6074 212.343 41.1681 212.343C41.6894 212.354 42.2109 212.327 42.7281 212.261C43.3031 212.178 43.7145 212.178 44.2067 212.096V193.784H50.9402L50.8581 216.695"
    fill="black"
  />
<path
    d="M72.4571 205.444C72.4571 201.092 70.8957 198.957 67.6929 198.957C67.0013 198.958 66.3122 199.04 65.64 199.203C65.0641 199.342 64.5111 199.564 63.9979 199.86V212.096C64.3258 212.178 64.7365 212.178 65.2293 212.261C65.7222 212.261 66.2965 212.343 66.8722 212.343C67.6697 212.379 68.4644 212.227 69.1921 211.899C69.9198 211.57 70.5599 211.075 71.0607 210.453C72.0427 208.973 72.5312 207.219 72.4564 205.444H72.4571ZM79.2721 205.609C79.3066 207.368 79.0285 209.12 78.4507 210.783C77.9562 212.256 77.1431 213.601 76.0692 214.724C74.9504 215.803 73.6421 216.666 72.21 217.27C70.5206 217.854 68.7406 218.132 66.9536 218.091C66.1329 218.091 65.3115 218.008 64.4079 217.927C63.5044 217.846 62.6843 217.763 61.7808 217.68C60.9593 217.598 60.1379 217.434 59.3165 217.269C58.6143 217.149 57.9264 216.956 57.2637 216.695V183.517L63.9979 182.449V194.275C64.7625 193.943 65.561 193.695 66.3793 193.536C67.2452 193.369 68.1253 193.287 69.0071 193.29C70.5336 193.262 72.0475 193.57 73.4414 194.193C74.7139 194.747 75.8391 195.591 76.7271 196.657C77.6716 197.806 78.3452 199.153 78.6978 200.599C79.0697 202.243 79.2622 203.922 79.2721 205.608"
    fill="black"
  />
<path
    d="M83.2969 205.855C83.2525 203.974 83.5875 202.103 84.2819 200.354C84.8755 198.891 85.7394 197.553 86.8283 196.411C87.8348 195.352 89.0704 194.537 90.4404 194.029C91.7949 193.473 93.247 193.194 94.7111 193.208C96.1834 193.141 97.6535 193.384 99.0258 193.921C100.398 194.459 101.642 195.279 102.677 196.329C104.647 198.381 105.632 201.421 105.632 205.362C105.644 205.802 105.617 206.242 105.551 206.676C105.551 207.087 105.469 207.497 105.469 207.908H90.1933C90.2601 208.567 90.4714 209.203 90.8121 209.77C91.1529 210.338 91.6147 210.824 92.1647 211.193C93.5321 212.072 95.1396 212.502 96.7632 212.424C97.9759 212.441 99.187 212.331 100.377 212.096C101.388 211.926 102.379 211.651 103.333 211.275L104.236 216.776C103.907 216.941 103.415 217.106 102.759 217.351C102.094 217.575 101.404 217.713 100.705 217.763C99.9188 217.923 99.1233 218.033 98.3232 218.091C97.5018 218.173 96.5996 218.255 95.7775 218.255C93.8693 218.299 91.9713 217.964 90.1933 217.27C88.7259 216.687 87.3869 215.822 86.2519 214.724C85.2377 213.572 84.457 212.233 83.9533 210.783C83.5221 209.175 83.3008 207.519 83.2948 205.855H83.2969ZM99.1446 203.227C99.1228 202.666 99.0119 202.111 98.8161 201.584C98.6537 201.054 98.4041 200.555 98.0775 200.106C97.6878 199.615 97.1861 199.225 96.6144 198.968C96.0428 198.71 95.4178 198.594 94.7918 198.628C94.1138 198.629 93.4431 198.768 92.8211 199.039C92.3065 199.25 91.8543 199.589 91.5076 200.024C91.1387 200.458 90.8595 200.961 90.6861 201.503C90.5107 202.04 90.3735 202.589 90.2754 203.146H99.1453"
    fill="black"
  />
<path
    d="M125.097 199.696C124.398 199.497 123.684 199.359 122.961 199.285C122.095 199.118 121.215 199.035 120.333 199.039C119.811 199.065 119.29 199.12 118.773 199.203C118.331 199.262 117.892 199.344 117.459 199.449V217.598H110.725V195.015C112.122 194.542 113.548 194.158 114.995 193.865C116.799 193.454 118.646 193.261 120.497 193.291C120.936 193.282 121.376 193.309 121.811 193.372C122.334 193.391 122.855 193.445 123.371 193.536C123.864 193.619 124.357 193.701 124.932 193.783C125.424 193.866 125.917 194.03 126.245 194.111L125.096 199.696"
    fill="black"
  />
<path
    d="M129.859 194.604C133.156 193.735 136.551 193.293 139.96 193.291C141.668 193.22 143.373 193.499 144.969 194.111C146.224 194.534 147.334 195.303 148.172 196.329C148.945 197.357 149.504 198.53 149.815 199.778C150.159 201.23 150.324 202.72 150.307 204.212V217.598H143.573V205.035C143.573 202.899 143.327 201.339 142.751 200.436C142.176 199.532 141.109 199.121 139.549 199.121C139.027 199.11 138.506 199.138 137.989 199.204C137.492 199.214 136.998 199.268 136.511 199.368V217.681H129.859V194.606"
    fill="black"
  />
<path
    d="M155.316 205.855C155.272 203.974 155.607 202.103 156.301 200.354C156.895 198.891 157.759 197.553 158.848 196.411C159.855 195.352 161.091 194.537 162.461 194.029C163.816 193.473 165.268 193.194 166.732 193.208C168.204 193.141 169.674 193.384 171.047 193.921C172.419 194.459 173.663 195.279 174.698 196.329C176.668 198.381 177.653 201.421 177.653 205.362C177.665 205.802 177.637 206.242 177.571 206.676C177.571 207.087 177.488 207.497 177.488 207.908H162.215C162.282 208.567 162.493 209.203 162.834 209.77C163.175 210.338 163.636 210.824 164.186 211.193C165.553 212.071 167.16 212.502 168.783 212.424C169.997 212.441 171.208 212.331 172.398 212.096C173.41 211.926 174.4 211.651 175.354 211.275L176.258 216.776C175.929 216.941 175.436 217.106 174.779 217.351C174.115 217.575 173.425 217.713 172.726 217.763C171.94 217.923 171.145 218.033 170.345 218.091C169.523 218.173 168.62 218.255 167.799 218.255C165.891 218.299 163.993 217.964 162.215 217.27C160.747 216.687 159.408 215.822 158.274 214.724C157.259 213.572 156.478 212.233 155.974 210.783C155.543 209.175 155.322 207.519 155.316 205.855V205.855ZM171.166 203.227C171.144 202.666 171.033 202.111 170.838 201.584C170.675 201.054 170.425 200.555 170.098 200.106C169.709 199.615 169.207 199.225 168.635 198.968C168.064 198.71 167.439 198.594 166.813 198.628C166.135 198.629 165.464 198.768 164.842 199.039C164.327 199.25 163.875 199.589 163.528 200.024C163.16 200.458 162.88 200.961 162.707 201.503C162.532 202.04 162.395 202.589 162.297 203.146H171.166"
    fill="black"
  />
<path
    d="M182.663 187.87L189.397 186.803V193.783H197.445V199.367H189.397V207.744C189.341 208.911 189.595 210.073 190.135 211.111C190.629 211.932 191.696 212.343 193.175 212.343C193.916 212.329 194.656 212.274 195.392 212.178C196.118 212.046 196.832 211.854 197.527 211.603L198.512 216.859C197.641 217.23 196.732 217.506 195.802 217.681C194.587 217.935 193.347 218.045 192.106 218.008C190.541 218.051 188.982 217.801 187.509 217.27C186.403 216.821 185.418 216.117 184.634 215.216C183.873 214.253 183.339 213.13 183.073 211.932C182.799 210.553 182.661 209.15 182.663 207.744V187.87"
    fill="black"
  />
<path
    d="M200.894 205.855C200.85 203.974 201.185 202.103 201.88 200.354C202.473 198.891 203.337 197.554 204.425 196.411C205.432 195.352 206.668 194.537 208.038 194.029C209.393 193.473 210.845 193.194 212.309 193.208C213.781 193.141 215.251 193.384 216.624 193.921C217.996 194.459 219.24 195.279 220.275 196.329C222.246 198.381 223.231 201.421 223.231 205.362C223.242 205.802 223.214 206.242 223.148 206.676C223.148 207.087 223.066 207.497 223.066 207.908H207.792C207.859 208.567 208.07 209.203 208.411 209.77C208.751 210.338 209.213 210.824 209.763 211.193C211.13 212.071 212.738 212.502 214.361 212.424C215.574 212.441 216.785 212.331 217.975 212.096C218.986 211.926 219.977 211.651 220.931 211.275L221.835 216.776C221.507 216.941 221.014 217.106 220.356 217.351C219.692 217.575 219.002 217.713 218.303 217.763C217.517 217.923 216.722 218.033 215.922 218.091C215.1 218.173 214.198 218.255 213.376 218.255C211.468 218.299 209.57 217.964 207.792 217.27C206.324 216.687 204.985 215.822 203.85 214.724C202.836 213.572 202.056 212.233 201.552 210.783C201.081 209.184 200.859 207.522 200.894 205.855V205.855ZM216.662 203.227C216.64 202.666 216.528 202.111 216.332 201.584C216.17 201.054 215.92 200.555 215.594 200.106C215.204 199.616 214.703 199.225 214.131 198.968C213.56 198.711 212.935 198.594 212.309 198.628C211.631 198.629 210.96 198.768 210.338 199.039C209.823 199.25 209.37 199.589 209.023 200.024C208.655 200.458 208.376 200.961 208.203 201.503C208.028 202.04 207.89 202.589 207.792 203.146H216.662"
    fill="black"
  />
<path
    d="M235.139 212.671C236.028 212.736 236.921 212.625 237.766 212.343C238.012 212.207 238.213 212.003 238.345 211.755C238.476 211.507 238.532 211.226 238.505 210.946C238.505 210.371 238.177 209.961 237.52 209.551C236.56 208.977 235.541 208.509 234.481 208.154C233.414 207.744 232.428 207.333 231.608 206.922C230.822 206.546 230.101 206.047 229.472 205.444C228.868 204.833 228.394 204.107 228.076 203.309C227.726 202.363 227.559 201.36 227.583 200.353C227.538 199.343 227.738 198.337 228.167 197.422C228.597 196.506 229.241 195.709 230.047 195.097C231.689 193.783 233.989 193.126 236.863 193.126C238.269 193.136 239.67 193.274 241.051 193.537C242.118 193.699 243.164 193.975 244.171 194.359L243.022 199.614C242.201 199.367 241.379 199.121 240.475 198.875C239.482 198.631 238.46 198.52 237.438 198.546C235.302 198.546 234.317 199.121 234.317 200.27C234.332 200.524 234.387 200.774 234.481 201.01C234.596 201.286 234.798 201.516 235.056 201.667C235.302 201.831 235.713 202.077 236.124 202.324C236.616 202.57 237.191 202.734 237.93 203.063C239.201 203.517 240.436 204.066 241.626 204.705C242.489 205.101 243.248 205.691 243.844 206.43C244.41 206.994 244.809 207.705 244.993 208.483C245.239 209.336 245.349 210.223 245.321 211.111C245.373 212.151 245.159 213.187 244.699 214.121C244.24 215.055 243.549 215.856 242.693 216.449C240.969 217.681 238.505 218.255 235.22 218.255C233.45 218.309 231.681 218.116 229.965 217.681C228.979 217.476 228.016 217.174 227.091 216.776L228.24 211.275C229.389 211.717 230.57 212.073 231.772 212.342C232.878 212.577 234.007 212.687 235.138 212.671"
    fill="black"
  />
<path
    d="M52.8005 121.843H60.1304V127.663H52.7998L52.8005 121.843Z"
    fill="white"
  />
<path
    d="M138.507 117.049C138.313 117.01 138.115 116.995 137.917 117.004C137.575 117.022 137.241 117.109 136.933 117.259C136.337 117.547 135.874 118.055 135.643 118.675C135.411 119.295 135.427 119.981 135.689 120.59L135.671 120.616L141.557 134.837C147.189 131.243 151.463 125.875 153.703 119.581L138.533 117.017L138.507 117.049ZM114.904 119.065C114.777 118.504 114.465 118.002 114.018 117.64C113.571 117.278 113.016 117.076 112.441 117.067C112.272 117.065 112.102 117.08 111.935 117.112L111.91 117.081L96.8724 119.633C99.1305 125.878 103.386 131.203 108.98 134.782L114.807 120.701L114.761 120.646C114.977 120.148 115.027 119.593 114.904 119.065V119.065ZM127.498 124.587C127.278 124.177 126.952 123.835 126.553 123.597C126.154 123.358 125.698 123.233 125.233 123.233C124.769 123.234 124.313 123.361 123.915 123.6C123.516 123.839 123.191 124.182 122.972 124.592H122.96L115.565 137.964C120.86 139.767 126.552 140.059 132.003 138.81C133.014 138.579 134.002 138.304 134.966 137.982L127.554 124.586L127.498 124.587ZM150.908 93.5248L139.53 103.708L139.536 103.741C139.187 104.046 138.926 104.441 138.783 104.882C138.64 105.324 138.619 105.796 138.722 106.249C138.825 106.701 139.049 107.118 139.37 107.453C139.691 107.789 140.097 108.031 140.544 108.155L140.558 108.216L155.295 112.461C155.932 105.84 154.392 99.1923 150.908 93.5261V93.5248ZM129.77 94.6658C129.791 95.1296 129.938 95.5789 130.194 95.9661C130.45 96.3533 130.806 96.6639 131.225 96.8649C131.644 97.0659 132.109 97.1499 132.571 97.1078C133.033 97.0658 133.476 96.8993 133.851 96.6261L133.896 96.6454L146.346 87.8176C141.607 83.176 135.474 80.2196 128.891 79.4033L129.756 94.6616L129.77 94.6658ZM116.586 96.6827C116.961 96.9557 117.404 97.1218 117.866 97.1633C118.329 97.2047 118.794 97.12 119.212 96.9182C119.63 96.7164 119.986 96.4049 120.241 96.017C120.496 95.6292 120.641 95.1793 120.661 94.7155L120.724 94.6851L121.589 79.4033C120.545 79.5286 119.508 79.7071 118.483 79.9383C113.025 81.1649 108.02 83.8926 104.03 87.8135L116.562 96.6965L116.586 96.6827ZM109.905 108.229C110.354 108.107 110.761 107.865 111.083 107.53C111.404 107.194 111.629 106.778 111.733 106.324C111.836 105.871 111.815 105.398 111.671 104.956C111.527 104.514 111.265 104.12 110.914 103.815L110.927 103.754L99.4864 93.5213C95.9961 99.2021 94.498 105.884 95.2289 112.511L109.894 108.28L109.905 108.229ZM121.017 112.724L125.237 114.754L129.445 112.729L130.49 108.186L127.578 104.544H122.891L119.971 108.18L121.017 112.724Z"
    fill="#326CE5"
  />
<path
    d="M195.005 121.674L182.979 69.4387C182.656 68.0873 182.037 66.8245 181.166 65.7415C180.296 64.6585 179.196 63.7822 177.945 63.1759L129.267 39.9347C128.006 39.3326 126.625 39.0202 125.227 39.0202C123.829 39.0202 122.449 39.3326 121.188 39.9347L72.5191 63.1883C71.2686 63.7943 70.1682 64.6703 69.2974 65.7532C68.4266 66.8362 67.8071 68.0989 67.4836 69.4504L55.4772 121.685C55.1811 123.005 55.1801 124.374 55.4744 125.695C55.5611 126.098 55.6743 126.494 55.8133 126.881C56.0483 127.542 56.3594 128.174 56.7404 128.763C56.9053 129.015 57.0793 129.26 57.2684 129.497L90.9561 171.381C91.1031 171.563 91.2653 171.73 91.4262 171.899C91.9548 172.462 92.5516 172.956 93.2029 173.371C94.0266 173.89 94.9243 174.28 95.8653 174.529C96.6369 174.74 97.4328 174.85 98.2329 174.855H98.7568L152.255 174.843C152.58 174.841 152.905 174.822 153.228 174.785C153.692 174.733 154.151 174.646 154.601 174.525C154.924 174.44 155.242 174.338 155.555 174.219C155.798 174.126 156.041 174.033 156.276 173.921C156.627 173.752 156.968 173.563 157.297 173.353C158.144 172.82 158.899 172.152 159.531 171.376L160.558 170.099L193.207 129.483C193.833 128.699 194.324 127.816 194.662 126.871C194.803 126.482 194.918 126.085 195.007 125.681C195.302 124.36 195.301 122.991 195.005 121.671L195.005 121.674ZM144.514 141.99C144.651 142.392 144.813 142.785 145 143.166C144.702 143.687 144.621 144.304 144.774 144.885C145.482 146.507 146.347 148.056 147.357 149.509C147.922 150.253 148.444 151.028 148.919 151.831C149.036 152.049 149.19 152.386 149.301 152.616C149.51 152.966 149.644 153.356 149.694 153.762C149.744 154.167 149.708 154.578 149.59 154.969C149.471 155.36 149.272 155.722 149.005 156.031C148.738 156.34 148.409 156.59 148.04 156.764C147.671 156.939 147.269 157.034 146.861 157.044C146.453 157.054 146.047 156.979 145.67 156.822C145.292 156.666 144.952 156.433 144.67 156.137C144.388 155.841 144.172 155.49 144.034 155.105C143.923 154.878 143.768 154.574 143.674 154.358C143.341 153.485 143.058 152.594 142.828 151.688C142.323 149.994 141.653 148.354 140.829 146.79C140.471 146.306 139.937 145.982 139.342 145.888C139.249 145.727 138.904 145.094 138.719 144.767C130.054 148.049 120.483 148.024 111.835 144.698L111.175 145.893C110.705 145.966 110.267 146.179 109.92 146.505C108.926 148.135 108.167 149.897 107.664 151.738C107.436 152.644 107.155 153.535 106.823 154.408C106.73 154.622 106.574 154.922 106.463 155.149V155.155L106.458 155.161C106.321 155.546 106.104 155.897 105.822 156.194C105.54 156.49 105.199 156.723 104.822 156.88C104.444 157.036 104.038 157.112 103.629 157.101C103.22 157.091 102.818 156.995 102.449 156.82C102.079 156.644 101.751 156.393 101.485 156.083C101.218 155.773 101.02 155.411 100.902 155.019C100.784 154.628 100.75 154.216 100.801 153.81C100.852 153.405 100.988 153.014 101.199 152.665C101.309 152.433 101.456 152.099 101.572 151.881C102.047 151.076 102.568 150.298 103.133 149.553C104.161 148.061 105.044 146.474 105.77 144.813C105.847 144.251 105.757 143.678 105.51 143.166L106.04 141.896C98.0672 137.19 92.0916 129.729 89.2408 120.921L87.9714 121.137C87.4789 120.787 86.8983 120.583 86.2954 120.547C84.5585 120.879 82.8579 121.379 81.2178 122.041C80.3662 122.424 79.4935 122.758 78.6038 123.042C78.3933 123.1 78.0896 123.158 77.8494 123.21C77.83 123.217 77.8135 123.225 77.7941 123.23C77.7793 123.232 77.7643 123.234 77.7493 123.234C77.3626 123.362 76.9536 123.407 76.5485 123.367C76.1434 123.327 75.7512 123.203 75.3968 123.002C75.0425 122.802 74.7338 122.53 74.4907 122.203C74.2475 121.877 74.0752 121.503 73.9848 121.106C73.8943 120.71 73.8878 120.298 73.9655 119.899C74.0432 119.499 74.2035 119.12 74.4361 118.786C74.6687 118.452 74.9684 118.17 75.3162 117.959C75.664 117.747 76.0521 117.611 76.4557 117.558L76.4978 117.547L76.5234 117.54C76.767 117.483 77.079 117.402 77.3013 117.36C78.228 117.231 79.1614 117.156 80.0969 117.135C81.861 117.019 83.6096 116.732 85.318 116.277C85.8243 115.955 86.2521 115.523 86.5702 115.014L87.7899 114.658C86.4663 105.464 88.5834 96.106 93.7351 88.3774L92.8012 87.545C92.7671 86.9408 92.5643 86.3582 92.2158 85.8635C90.8741 84.7102 89.423 83.6906 87.883 82.8194C87.0515 82.3954 86.2451 81.9238 85.4678 81.4071C85.2911 81.2753 85.0564 81.0772 84.8645 80.9212L84.821 80.8908C84.1584 80.4149 83.7111 79.696 83.5768 78.8912C83.4426 78.0865 83.6323 77.2613 84.1045 76.596C84.3836 76.2545 84.7391 75.9835 85.1425 75.805C85.5458 75.6266 85.9855 75.5457 86.4259 75.5689C87.1673 75.6007 87.879 75.8692 88.4566 76.3351C88.6548 76.4904 88.926 76.6982 89.102 76.8493C89.7802 77.4907 90.4209 78.1706 91.021 78.8856C92.2116 80.1937 93.527 81.3824 94.9486 82.435C95.4813 82.7151 96.1025 82.7753 96.6791 82.6027C97.0261 82.8558 97.3763 83.1047 97.7297 83.3496C102.849 77.9083 109.478 74.1214 116.765 72.4751C118.5 72.0823 120.259 71.8118 122.032 71.6654L122.101 70.434C122.553 70.0319 122.881 69.5088 123.046 68.9265C123.11 67.159 123.001 65.3896 122.722 63.6432C122.537 62.728 122.404 61.8029 122.324 60.8725C122.317 60.6606 122.329 60.3679 122.331 60.1263C122.331 60.0987 122.324 60.0718 122.324 60.0448C122.283 59.6376 122.328 59.2262 122.455 58.8372C122.583 58.4482 122.79 58.0902 123.065 57.7864C123.339 57.4826 123.674 57.2398 124.048 57.0735C124.422 56.9071 124.827 56.8211 125.236 56.8209C125.646 56.8207 126.05 56.9064 126.425 57.0723C126.799 57.2383 127.134 57.4808 127.409 57.7844C127.683 58.0879 127.891 58.4457 128.019 58.8345C128.147 59.2234 128.192 59.6348 128.151 60.0421C128.151 60.2975 128.166 60.6364 128.157 60.8704C128.077 61.8007 127.944 62.7256 127.758 63.6404C127.477 65.3871 127.366 67.157 127.428 68.9251C127.543 69.5162 127.884 70.0388 128.379 70.3816C128.39 70.5921 128.424 71.2948 128.45 71.682C137.659 72.5196 146.252 76.6713 152.631 83.3661L153.74 82.5744C154.335 82.6765 154.947 82.6101 155.507 82.3825C156.928 81.3282 158.244 80.1381 159.434 78.829C160.036 78.1136 160.678 77.4337 161.358 76.7927C161.537 76.6395 161.807 76.4338 162.004 76.2778C162.297 75.9896 162.646 75.766 163.031 75.6217C163.415 75.4773 163.825 75.4154 164.235 75.44C164.645 75.4645 165.045 75.5749 165.409 75.7641C165.774 75.9532 166.094 76.2169 166.35 76.538C166.606 76.859 166.791 77.2303 166.894 77.6277C166.998 78.0251 167.016 78.4397 166.948 78.8446C166.881 79.2496 166.729 79.6358 166.502 79.9782C166.276 80.3206 165.98 80.6115 165.634 80.8322C165.438 80.9902 165.18 81.2104 164.992 81.3499C164.214 81.8669 163.405 82.3385 162.572 82.7621C161.032 83.6338 159.581 84.6533 158.239 85.8062C157.848 86.2636 157.652 86.8557 157.692 87.4559C157.53 87.605 156.961 88.1096 156.659 88.383C161.825 96.0839 163.985 105.413 162.728 114.601L163.904 114.944C164.198 115.473 164.633 115.91 165.16 116.208C166.87 116.663 168.619 116.951 170.384 117.067C171.319 117.088 172.251 117.163 173.177 117.291C173.422 117.335 173.776 117.433 174.026 117.491C174.43 117.544 174.818 117.681 175.165 117.892C175.513 118.104 175.813 118.386 176.045 118.72C176.278 119.054 176.438 119.433 176.515 119.833C176.593 120.232 176.586 120.644 176.495 121.041C176.405 121.438 176.232 121.811 175.989 122.138C175.746 122.464 175.437 122.736 175.082 122.936C174.728 123.136 174.336 123.26 173.93 123.3C173.525 123.339 173.116 123.294 172.73 123.167L172.688 123.161C172.668 123.156 172.65 123.146 172.63 123.141C172.39 123.089 172.088 123.036 171.878 122.981C170.988 122.695 170.116 122.358 169.265 121.972C167.624 121.31 165.921 120.809 164.183 120.478C163.581 120.458 162.996 120.676 162.552 121.083C162.138 121.004 161.723 120.931 161.307 120.865C158.49 129.728 152.514 137.247 144.514 141.99V141.99Z"
    fill="#326CE5"
  />
<path
    d="M201.355 123.014L188.235 66.0253C187.882 64.5507 187.207 63.1727 186.257 61.991C185.307 60.8092 184.106 59.8531 182.742 59.1917L129.637 33.8383C128.26 33.1813 126.754 32.8404 125.229 32.8404C123.704 32.8404 122.198 33.1813 120.821 33.8383L67.7205 59.2069C66.3562 59.8677 65.1555 60.8232 64.2052 62.0043C63.255 63.1855 62.5787 64.5628 62.2253 66.037L49.1282 123.029C48.8328 124.343 48.8024 125.702 49.0389 127.028C49.2754 128.353 49.7739 129.619 50.5053 130.749C50.6855 131.025 50.8767 131.293 51.0838 131.551L87.8376 177.25C88.8009 178.426 90.0116 179.375 91.3835 180.03C92.7555 180.685 94.2549 181.029 95.7749 181.038L154.715 181.024C156.234 181.015 157.734 180.672 159.106 180.018C160.478 179.364 161.689 178.416 162.653 177.241L199.393 131.538C200.334 130.353 200.999 128.973 201.338 127.499C201.677 126.024 201.683 124.493 201.355 123.016V123.014ZM195.007 125.683C194.918 126.086 194.803 126.484 194.663 126.872C194.325 127.817 193.833 128.7 193.206 129.485L160.558 170.099L159.532 171.377C158.899 172.154 158.144 172.822 157.295 173.355C156.968 173.564 156.628 173.754 156.278 173.922C156.042 174.031 155.802 174.13 155.557 174.219C155.244 174.338 154.925 174.44 154.602 174.526C154.152 174.647 153.693 174.735 153.229 174.788C152.906 174.824 152.581 174.843 152.256 174.844L98.7576 174.857H98.233C97.4332 174.852 96.6375 174.742 95.8661 174.531C94.9256 174.282 94.0283 173.891 93.2051 173.372C92.5534 172.958 91.956 172.464 91.427 171.901C91.2661 171.731 91.1039 171.565 90.9576 171.383L57.2692 129.499C57.0815 129.262 56.9055 129.017 56.7412 128.763C56.3602 128.174 56.0491 127.542 55.8141 126.881C55.6751 126.493 55.5619 126.097 55.4752 125.695C55.181 124.374 55.182 123.005 55.478 121.685L67.4844 69.449C67.8081 68.0978 68.4277 66.8353 69.2985 65.7526C70.1692 64.67 71.2695 63.7941 72.5199 63.1883L121.189 39.9361C122.451 39.3341 123.831 39.0216 125.229 39.0216C126.627 39.0216 128.007 39.3341 129.269 39.9361L177.945 63.1773C179.196 63.7836 180.296 64.6599 181.166 65.7429C182.037 66.8259 182.656 68.0887 182.98 69.44L195.005 121.676C195.301 122.995 195.302 124.364 195.007 125.684V125.683Z"
    fill="white"
  />
<path
    d="M174.025 117.491C173.777 117.433 173.422 117.335 173.178 117.291C172.252 117.163 171.32 117.087 170.386 117.066C168.62 116.95 166.87 116.663 165.16 116.208C164.633 115.911 164.198 115.473 163.904 114.944L162.728 114.601C163.985 105.414 161.826 96.0841 156.66 88.3829C156.961 88.1096 157.531 87.605 157.692 87.4566C157.652 86.8564 157.848 86.2643 158.239 85.8069C159.581 84.654 161.032 83.6345 162.572 82.7628C163.405 82.3392 164.214 81.8676 164.993 81.3505C165.18 81.2111 165.437 80.9902 165.634 80.8328C165.98 80.6123 166.276 80.3214 166.502 79.979C166.729 79.6367 166.881 79.2506 166.948 78.8458C167.016 78.4409 166.998 78.0264 166.895 77.6291C166.792 77.2318 166.606 76.8605 166.351 76.5394C166.095 76.2184 165.775 75.9546 165.41 75.7654C165.046 75.5761 164.646 75.4655 164.237 75.4408C163.827 75.416 163.417 75.4777 163.032 75.6218C162.648 75.7658 162.298 75.9891 162.006 76.2771C161.807 76.4338 161.536 76.6395 161.36 76.7927C160.679 77.4337 160.036 78.1136 159.435 78.829C158.244 80.138 156.928 81.3281 155.507 82.3825C154.947 82.6101 154.335 82.6765 153.74 82.5744L152.631 83.3661C146.252 76.6713 137.659 72.5195 128.45 71.682C128.423 71.2948 128.39 70.5935 128.38 70.3815C127.885 70.0385 127.544 69.5159 127.429 68.9251C127.367 67.157 127.478 65.3871 127.759 63.6404C127.944 62.7257 128.077 61.8011 128.156 60.8711C128.165 60.6364 128.151 60.2954 128.151 60.0421C128.192 59.6348 128.147 59.2234 128.019 58.8345C127.891 58.4457 127.683 58.0879 127.409 57.7844C127.134 57.4808 126.799 57.2383 126.425 57.0723C126.05 56.9064 125.646 56.8207 125.236 56.8209C124.827 56.8211 124.422 56.9071 124.048 57.0734C123.674 57.2397 123.339 57.4826 123.065 57.7864C122.79 58.0902 122.583 58.4482 122.455 58.8372C122.328 59.2262 122.283 59.6376 122.325 60.0448C122.325 60.0724 122.331 60.0987 122.331 60.1263C122.329 60.3679 122.317 60.6605 122.325 60.8718C122.404 61.8024 122.537 62.7277 122.722 63.6432C123.001 65.3896 123.11 67.159 123.047 68.9265C122.881 69.5083 122.553 70.0309 122.101 70.4326L122.032 71.6654C120.259 71.8118 118.5 72.0823 116.765 72.4751C109.479 74.1218 102.851 77.9086 97.7318 83.3495C97.3774 83.1052 97.0263 82.8562 96.6784 82.6027C96.1021 82.7751 95.4811 82.7149 94.9486 82.4349C93.5271 81.3826 92.2117 80.1941 91.021 78.8863C90.4216 78.1713 89.7816 77.4915 89.1042 76.85C88.9268 76.6982 88.6555 76.4911 88.4567 76.333C87.879 75.8671 87.1673 75.5986 86.4259 75.5668C85.9854 75.5437 85.5457 75.6247 85.1424 75.8032C84.7391 75.9818 84.3835 76.2529 84.1046 76.5946C83.6323 77.2599 83.4426 78.0851 83.5769 78.8898C83.7111 79.6946 84.1584 80.4135 84.8211 80.8894L84.8659 80.9212C85.0564 81.0772 85.2911 81.2767 85.4678 81.4058C86.2451 81.9229 87.0515 82.3949 87.8831 82.8194C89.4228 83.6911 90.8737 84.7111 92.2152 85.8649C92.5636 86.3592 92.7666 86.9412 92.8012 87.545L93.7338 88.3788C88.5826 96.1076 86.466 105.466 87.7899 114.659L86.5702 115.014C86.2519 115.522 85.8241 115.953 85.3181 116.275C83.6096 116.731 81.8607 117.019 80.0962 117.136C79.161 117.157 78.2278 117.232 77.3013 117.361C77.0777 117.402 76.7671 117.481 76.5234 117.542L76.4978 117.547L76.4564 117.56C76.0529 117.613 75.6649 117.749 75.3173 117.961C74.9696 118.173 74.67 118.455 74.4375 118.789C74.205 119.123 74.0449 119.502 73.9672 119.901C73.8896 120.301 73.8963 120.712 73.9867 121.109C74.0772 121.506 74.2495 121.879 74.4926 122.205C74.7357 122.532 75.0443 122.804 75.3986 123.004C75.7529 123.204 76.1451 123.329 76.5501 123.369C76.9551 123.409 77.3641 123.364 77.7507 123.236L77.7942 123.23C77.8135 123.225 77.8301 123.216 77.8494 123.212C78.0896 123.158 78.3919 123.1 78.6032 123.043C79.4926 122.759 80.3651 122.424 81.2165 122.041C82.857 121.379 84.558 120.879 86.2955 120.547C86.898 120.583 87.4781 120.788 87.97 121.138L89.2401 120.921C92.0913 129.729 98.0674 137.19 106.041 141.896L105.51 143.166C105.757 143.677 105.848 144.251 105.771 144.813C105.044 146.473 104.162 148.06 103.134 149.551C102.569 150.297 102.047 151.074 101.572 151.879C101.456 152.098 101.309 152.435 101.198 152.665C100.987 153.014 100.853 153.405 100.802 153.81C100.752 154.215 100.787 154.626 100.905 155.017C101.023 155.408 101.221 155.77 101.488 156.079C101.754 156.389 102.082 156.639 102.451 156.814C102.82 156.989 103.221 157.085 103.63 157.095C104.038 157.106 104.444 157.031 104.821 156.875C105.198 156.719 105.539 156.486 105.821 156.191C106.103 155.896 106.32 155.545 106.458 155.161L106.463 155.155V155.148C106.573 154.92 106.73 154.621 106.823 154.408C107.155 153.535 107.436 152.644 107.664 151.738C108.167 149.897 108.926 148.135 109.92 146.505C110.267 146.179 110.705 145.965 111.175 145.892L111.836 144.697C120.484 148.023 130.054 148.047 138.719 144.766C138.904 145.096 139.249 145.727 139.34 145.886C139.935 145.981 140.469 146.306 140.828 146.79C141.653 148.354 142.323 149.994 142.828 151.688C143.059 152.594 143.341 153.485 143.674 154.358C143.768 154.574 143.922 154.877 144.034 155.105C144.172 155.49 144.388 155.841 144.67 156.137C144.952 156.433 145.292 156.666 145.67 156.822C146.047 156.979 146.453 157.054 146.861 157.044C147.269 157.034 147.671 156.939 148.04 156.764C148.409 156.59 148.738 156.34 149.005 156.031C149.272 155.721 149.471 155.36 149.59 154.969C149.708 154.578 149.744 154.167 149.694 153.762C149.644 153.356 149.51 152.966 149.301 152.615C149.19 152.386 149.036 152.049 148.921 151.831C148.446 151.028 147.924 150.253 147.359 149.509C146.349 148.056 145.484 146.507 144.776 144.885C144.622 144.304 144.703 143.687 145 143.166C144.813 142.785 144.651 142.392 144.514 141.99C152.514 137.247 158.49 129.728 161.307 120.865C161.684 120.925 162.341 121.039 162.554 121.083C162.997 120.676 163.582 120.459 164.183 120.477C165.921 120.81 167.622 121.31 169.263 121.972C170.115 122.358 170.988 122.695 171.878 122.981C172.088 123.036 172.389 123.089 172.63 123.142C172.65 123.147 172.668 123.156 172.688 123.161L172.729 123.167C173.116 123.294 173.524 123.339 173.929 123.299C174.334 123.259 174.726 123.135 175.08 122.935C175.434 122.734 175.742 122.462 175.985 122.136C176.228 121.81 176.401 121.437 176.491 121.04C176.582 120.644 176.589 120.233 176.511 119.833C176.434 119.434 176.274 119.055 176.042 118.721C175.81 118.387 175.511 118.105 175.163 117.893C174.816 117.681 174.429 117.544 174.025 117.491V117.491ZM146.346 87.8183L133.895 96.6447L133.852 96.6247C133.477 96.8984 133.034 97.0653 132.572 97.1076C132.109 97.1499 131.644 97.0661 131.225 96.8651C130.807 96.6641 130.45 96.3533 130.194 95.966C129.938 95.5786 129.791 95.129 129.77 94.665L129.757 94.6588L128.892 79.4012C135.475 80.2186 141.607 83.1759 146.345 87.8183H146.346ZM122.892 104.542H127.577L130.49 108.184L129.446 112.727L125.238 114.751L121.018 112.722L119.971 108.178L122.892 104.542ZM118.484 79.9355C119.51 79.7045 120.548 79.5262 121.592 79.4012L120.726 94.6816L120.662 94.712C120.643 95.176 120.498 95.626 120.243 96.014C119.988 96.4021 119.632 96.7138 119.214 96.9158C118.796 97.1178 118.33 97.2026 117.868 97.1612C117.405 97.1198 116.963 96.9537 116.587 96.6806L116.563 96.6944L104.032 87.8093C108.021 83.889 113.027 81.1618 118.484 79.9355ZM99.4878 93.5206L110.928 103.752L110.916 103.815C111.266 104.12 111.527 104.515 111.671 104.957C111.815 105.399 111.836 105.871 111.733 106.324C111.629 106.777 111.405 107.194 111.083 107.529C110.762 107.864 110.355 108.106 109.907 108.229L109.895 108.278L95.2303 112.51C94.4996 105.883 95.9976 99.2019 99.4878 93.5213V93.5206ZM114.805 120.703L108.979 134.782C103.386 131.202 99.1317 125.877 96.8745 119.632L111.91 117.079L111.936 117.112C112.102 117.08 112.271 117.065 112.44 117.067C112.862 117.073 113.275 117.183 113.644 117.387C114.013 117.591 114.326 117.883 114.556 118.237C114.785 118.591 114.924 118.995 114.96 119.416C114.996 119.836 114.928 120.258 114.762 120.646L114.805 120.703ZM132.004 138.809C126.552 140.059 120.86 139.766 115.565 137.964L122.96 124.592H122.973C123.193 124.184 123.519 123.842 123.917 123.604C124.315 123.366 124.77 123.24 125.234 123.239C125.698 123.239 126.154 123.364 126.553 123.602C126.951 123.839 127.278 124.18 127.499 124.588H127.554L134.967 137.982C134.005 138.303 133.017 138.579 132.004 138.81V138.809ZM141.558 134.838L135.671 120.616L135.689 120.59C135.428 119.982 135.412 119.296 135.644 118.676C135.876 118.056 136.338 117.549 136.934 117.261C137.241 117.11 137.576 117.024 137.918 117.005C138.115 116.996 138.313 117.011 138.508 117.049L138.533 117.017L153.703 119.581C151.464 125.876 147.19 131.245 141.558 134.839V134.838ZM155.296 112.461L140.558 108.216L140.544 108.154C140.096 108.03 139.691 107.788 139.37 107.452C139.049 107.116 138.825 106.7 138.721 106.247C138.618 105.794 138.639 105.322 138.783 104.88C138.926 104.439 139.187 104.044 139.536 103.739L139.531 103.709L150.908 93.5268C154.392 99.1926 155.932 105.84 155.296 112.461H155.296Z"
    fill="white"
  />
</svg>
