<svg
  width="250"
  height="250"
  viewBox="0 0 250 250"
  fill="none"
  xmlns="http://www.w3.org/2000/svg"
>
<g clip-path="url(#clip0)">
<path
      d="M216.625 156.937V168.25C216.625 168.25 231.25 168.25 237.062 168.25C241.25 168.25 248.437 165.187 248.687 156.625C248.687 156.25 248.687 152.562 248.687 152.25C248.687 144.937 242.687 140.625 237.062 140.625C234.437 140.625 226.875 140.625 226.875 140.625V135.375H247.062V124C247.062 124 233.187 124 227.687 124C222.687 124 216 128.125 216 135.812C216 136.562 216 139.062 216 139.75C216 147.437 222.625 151.375 227.687 151.375C241.75 151.437 224.313 151.375 237.312 151.375C237.312 156.875 237.312 156.875 237.312 156.875"
      fill="#BA271A"
    />
<path
      d="M107.125 154.187C107.125 154.187 118.062 153.25 118.062 139.125C118.062 125 104.812 123.688 104.812 123.688H80.9375V168.25H92.9375V157.5L103.312 168.25H121.062L107.125 154.187ZM102.5 145.062H92.9375V134.875H102.563C102.563 134.875 105.25 135.875 105.25 139.938C105.25 144 102.5 145.062 102.5 145.062Z"
      fill="#BA271A"
    />
<path
      d="M147.688 124C144.625 124 144.188 124 135.5 124C126.813 124 123.875 131.875 123.875 135.625C123.875 143.75 123.875 168.25 123.875 168.25H136.063V160.437H147.5V168.25H159.313C159.313 168.25 159.313 144.187 159.313 135.625C159.313 126.125 150.688 124 147.688 124ZM147.5 147.812H136V137C136 137 136 134.562 139.813 134.562C143.313 134.562 140.437 134.562 144 134.562C147.375 134.562 147.438 137 147.438 137V147.812H147.5Z"
      fill="#BA271A"
    />
<path d="M177.563 124H164.875V168.25H177.563V124Z" fill="#BA271A" />
<path
      d="M195.375 156.812V124H182.75V156.812V168.25H195.375H212.438V156.812H195.375Z"
      fill="#BA271A"
    />
<path
      d="M5.625 168.25H55C55 168.25 45.5625 125.187 76.8125 107.75C83.625 104.437 105.312 92.0625 140.812 118.312C141.937 117.375 143 116.625 143 116.625C143 116.625 110.5 84.1875 74.3125 87.8125C56.125 89.4375 33.75 106 20.625 127.875C7.5 149.75 5.625 168.25 5.625 168.25Z"
      fill="#BA271A"
    />
<path
      d="M5.625 168.25H55C55 168.25 45.5625 125.187 76.8125 107.75C83.625 104.437 105.312 92.0625 140.812 118.312C141.937 117.375 143 116.625 143 116.625C143 116.625 110.5 84.1875 74.3125 87.8125C56.125 89.4375 33.75 106 20.625 127.875C7.5 149.75 5.625 168.25 5.625 168.25Z"
      fill="#BA271A"
    />
<path
      d="M5.625 168.25H55C55 168.25 45.5625 125.187 76.8125 107.75C83.625 104.437 105.312 92.0625 140.812 118.312C141.937 117.375 143 116.625 143 116.625C143 116.625 110.5 84.1875 74.3125 87.8125C56.0625 89.4375 33.6875 106 20.5625 127.875C7.4375 149.75 5.625 168.25 5.625 168.25Z"
      fill="#BA271A"
    />
<path
      d="M108.5 91.3125L108.75 87.125C108.188 86.8125 106.625 86.0625 102.688 84.9375L102.438 89.0625C104.5 89.75 106.5 90.5 108.5 91.3125Z"
      fill="#BA271A"
    />
<path
      d="M102.563 104.562L102.312 108.5C104.375 108.562 106.438 108.813 108.5 109.25L108.75 105.375C106.625 104.937 104.563 104.688 102.563 104.562Z"
      fill="#BA271A"
    />
<path
      d="M79.4375 85.0625C79.625 85.0625 79.875 85.0625 80.0625 85.0625L78.8125 81.25C76.875 81.25 74.875 81.375 72.8125 81.625L74 85.3125C75.8125 85.125 77.625 85.0625 79.4375 85.0625Z"
      fill="#BA271A"
    />
<path
      d="M82.4375 108.063L83.875 112.375C85.6875 111.5 87.5 110.75 89.3125 110.188L87.9375 106.062C85.8125 106.687 84 107.375 82.4375 108.063Z"
      fill="#BA271A"
    />
<path
      d="M54.0625 91.625L51.25 87.3125C49.6875 88.125 48.0625 89 46.375 90L49.25 94.375C50.875 93.375 52.4375 92.4375 54.0625 91.625Z"
      fill="#BA271A"
    />
<path
      d="M66.875 119.75L69.875 124.25C70.9375 122.687 72.1875 121.25 73.5625 119.812L70.75 115.562C69.3125 116.875 68 118.312 66.875 119.75Z"
      fill="#BA271A"
    />
<path
      d="M57.8125 139.875L62.875 143.875C63.125 141.437 63.5625 139 64.1875 136.563L59.6875 133C58.875 135.312 58.3125 137.625 57.8125 139.875Z"
      fill="#BA271A"
    />
<path
      d="M30.4375 110.188L26 106.312C24.375 107.875 22.8125 109.438 21.375 111L26.1875 115.125C27.5 113.438 28.9375 111.75 30.4375 110.188Z"
      fill="#BA271A"
    />
<path
      d="M11.5625 138.125L4.375 135.5C3.1875 138.187 1.875 141.312 1.25 143L8.4375 145.625C9.25 143.5 10.5625 140.438 11.5625 138.125Z"
      fill="#BA271A"
    />
<path
      d="M56.875 155.75C57 159.062 57.3125 161.75 57.625 163.625L65.125 166.312C64.5625 163.875 64 161.125 63.625 158.187L56.875 155.75Z"
      fill="#BA271A"
    />
</g>
<defs>
<clipPath id="clip0">
<rect width="250" height="87.5" fill="white" transform="translate(0 81)" />
</clipPath>
</defs>
</svg>
