<svg
  width="250"
  height="250"
  viewBox="0 0 250 250"
  fill="none"
  xmlns="http://www.w3.org/2000/svg"
>
<path
    d="M81.4542 114.462H72.5996V109.173H96.3147V114.462H87.4502V140.886H81.4741"
    fill="black"
  />
<path
    d="M101.783 136.604C104.188 136.592 106.578 136.222 108.874 135.508L109.781 139.89C107.047 140.877 104.161 141.375 101.255 141.365C93.9741 141.365 91.4442 137.988 91.4442 132.4V126.275C91.4442 121.375 93.6355 117.231 101.066 117.231C108.496 117.231 110.159 121.564 110.159 126.564V131.544H97.2111V132.739C97.2609 135.508 98.257 136.604 101.783 136.604ZM97.261 126.873H104.641V125.697C104.641 123.506 103.974 121.982 101.116 121.982C98.257 121.982 97.261 123.506 97.261 125.697V126.873V126.873ZM125.687 122.56C123.548 123.526 121.487 124.653 119.522 125.936V140.877H113.715V117.699H118.616L118.994 120.269C120.883 118.99 122.933 117.965 125.09 117.221L125.687 122.56V122.56ZM139.871 122.56C137.739 123.526 135.683 124.654 133.725 125.936V140.877H127.918V117.699H132.819L133.197 120.269C135.087 118.99 137.136 117.965 139.293 117.221L139.871 122.56V122.56ZM159.303 140.886H154.542L154.114 139.313C152.06 140.649 149.661 141.363 147.211 141.365C142.978 141.365 141.165 138.456 141.165 134.462C141.165 129.751 143.217 127.938 147.928 127.938H153.496V125.508C153.496 122.938 152.779 122.032 149.064 122.032C146.902 122.056 144.751 122.297 142.639 122.749L141.922 118.317C144.518 117.6 147.197 117.231 149.89 117.221C157.171 117.221 159.323 119.791 159.323 125.598L159.303 140.886V140.886ZM153.496 132.122H149.213C147.311 132.122 146.783 132.649 146.783 134.402C146.783 136.155 147.311 136.733 149.114 136.733C150.651 136.709 152.159 136.299 153.496 135.538V132.122V132.122ZM177.151 112.41C176.056 112.174 174.936 112.048 173.815 112.032C171.534 112.032 171.195 113.028 171.195 114.791V117.699H177.102L176.773 122.321H171.205V140.886H165.398V122.321H161.683V117.699H165.398V114.462C165.398 109.651 167.639 107.271 172.779 107.271C174.462 107.265 176.137 107.49 177.759 107.938L177.151 112.41V112.41ZM188.486 141.365C180.518 141.365 178.396 136.982 178.396 132.221V126.365C178.396 121.604 180.538 117.221 188.486 117.221C196.434 117.221 198.576 121.604 198.576 126.365V132.221C198.586 136.982 196.434 141.365 188.486 141.365ZM188.486 122.171C185.388 122.171 184.203 123.556 184.203 126.155V132.39C184.203 135.01 185.398 136.375 188.486 136.375C191.574 136.375 192.769 134.99 192.769 132.39V126.175C192.769 123.556 191.584 122.171 188.486 122.171V122.171ZM213.526 122.56C211.394 123.526 209.339 124.654 207.38 125.936V140.877H201.574V117.699H206.474L206.853 120.269C208.742 118.99 210.791 117.965 212.948 117.221L213.526 122.56ZM229.482 140.886V124.701C229.482 123.466 228.954 122.849 227.629 122.849C225.501 123.102 223.446 123.779 221.584 124.841V140.886H215.777V117.699H220.209L220.777 119.691C223.671 118.227 226.841 117.385 230.08 117.221C231.915 117.048 233.665 118.038 234.462 119.701C237.361 118.217 240.542 117.371 243.795 117.221C247.649 117.221 249.034 119.93 249.034 124.074V140.886H243.227V124.701C243.227 123.466 242.699 122.849 241.375 122.849C239.243 123.084 237.183 123.762 235.329 124.841V140.886H229.482V140.886Z"
    fill="black"
  />
<path
    d="M36.255 133.974L52.5897 124.552V105.677L36.255 115.12"
    fill="#4040B2"
  />
<path
    d="M18.1274 105.677L34.4621 115.12V133.974L18.1274 124.542"
    fill="#5C4EE5"
  />
<path
    d="M0 114.015L16.3347 123.447V104.582L0 95.15V114.015ZM18.1275 145.479L34.4622 154.911V136.046L18.1275 126.614"
    fill="#5C4EE5"
  />
</svg>
